<?xml version="1.0" encoding="UTF-8"?>
<svg width="128" height="128" viewBox="0 0 128 128" xmlns="http://www.w3.org/2000/svg">
  <defs>
    <linearGradient id="gradient" x1="0%" y1="0%" x2="100%" y2="100%">
      <stop offset="0%" style="stop-color:#4A90E2;stop-opacity:1" />
      <stop offset="100%" style="stop-color:#357ABD;stop-opacity:1" />
    </linearGradient>
  </defs>
  
  <!-- Background circle -->
  <circle cx="64" cy="64" r="60" fill="url(#gradient)" stroke="#2C5282" stroke-width="2"/>
  
  <!-- Flowchart nodes -->
  <rect x="20" y="30" width="24" height="16" rx="2" fill="white" opacity="0.9"/>
  <rect x="52" y="20" width="24" height="16" rx="2" fill="white" opacity="0.9"/>
  <rect x="84" y="30" width="24" height="16" rx="2" fill="white" opacity="0.9"/>
  
  <rect x="36" y="60" width="24" height="16" rx="2" fill="white" opacity="0.9"/>
  <rect x="68" y="60" width="24" height="16" rx="2" fill="white" opacity="0.9"/>
  
  <rect x="52" y="90" width="24" height="16" rx="2" fill="white" opacity="0.9"/>
  
  <!-- Connection lines -->
  <line x1="32" y1="46" x2="48" y2="60" stroke="white" stroke-width="2" opacity="0.8"/>
  <line x1="64" y1="36" x2="48" y2="60" stroke="white" stroke-width="2" opacity="0.8"/>
  <line x1="96" y1="46" x2="80" y2="60" stroke="white" stroke-width="2" opacity="0.8"/>
  
  <line x1="48" y1="76" x2="64" y2="90" stroke="white" stroke-width="2" opacity="0.8"/>
  <line x1="80" y1="76" x2="64" y2="90" stroke="white" stroke-width="2" opacity="0.8"/>
  
  <!-- Arrow markers -->
  <defs>
    <marker id="arrowhead" markerWidth="10" markerHeight="7" refX="9" refY="3.5" orient="auto">
      <polygon points="0 0, 10 3.5, 0 7" fill="white" opacity="0.8"/>
    </marker>
  </defs>
  
  <!-- Code symbols -->
  <text x="32" y="40" font-family="monospace" font-size="8" fill="#2C5282" text-anchor="middle">fn</text>
  <text x="64" y="30" font-family="monospace" font-size="8" fill="#2C5282" text-anchor="middle">if</text>
  <text x="96" y="40" font-family="monospace" font-size="8" fill="#2C5282" text-anchor="middle">cls</text>
  <text x="48" y="70" font-family="monospace" font-size="8" fill="#2C5282" text-anchor="middle">api</text>
  <text x="80" y="70" font-family="monospace" font-size="8" fill="#2C5282" text-anchor="middle">db</text>
  <text x="64" y="100" font-family="monospace" font-size="8" fill="#2C5282" text-anchor="middle">ret</text>
</svg>